<?xml version="1.0" standalone="no"?>
<!DOCTYPE svg PUBLIC "-//W3C//DTD SVG 20010904//EN"
 "http://www.w3.org/TR/2001/REC-SVG-20010904/DTD/svg10.dtd">
<svg version="1.0" xmlns="http://www.w3.org/2000/svg"
 width="512.000000pt" height="512.000000pt" viewBox="0 0 512.000000 512.000000"
 preserveAspectRatio="xMidYMid meet">
<metadata>
Created by potrace 1.11, written by Peter Selinger 2001-2013
</metadata>
<g transform="translate(0.000000,512.000000) scale(0.100000,-0.100000)"
fill="#000000" stroke="none">
<path d="M4120 4469 c-19 -11 -118 -103 -220 -205 l-185 -183 -85 56 c-113 74
-320 174 -451 217 -687 224 -1435 46 -1947 -463 -356 -353 -562 -843 -562
-1338 l0 -103 320 0 320 0 0 98 c0 246 77 494 220 708 67 100 232 266 330 331
237 158 490 231 770 219 202 -8 350 -45 528 -133 l94 -46 -190 -191 c-105
-105 -197 -205 -206 -223 -38 -75 -11 -148 68 -184 39 -17 80 -19 681 -19 617
0 641 1 672 20 22 13 34 29 38 52 3 18 5 321 3 673 -3 713 1 672 -71 715 -41
26 -83 25 -127 -1z"/>
<path d="M3807 2533 c-3 -76 -13 -169 -21 -208 -98 -444 -405 -794 -826 -943
-149 -52 -238 -66 -420 -67 -231 0 -379 34 -578 132 l-94 46 190 191 c104 105
197 205 206 223 24 49 21 106 -9 142 -53 63 -43 62 -757 59 l-647 -3 -23 -23
-23 -23 -3 -647 c-2 -438 0 -659 8 -684 11 -40 57 -84 97 -94 63 -16 99 9 303
212 l195 193 85 -55 c754 -493 1752 -394 2391 238 360 357 569 849 569 1344
l0 104 -319 0 -318 0 -6 -137z"/>
</g>
</svg>
